<svg version="1.2" xmlns="http://www.w3.org/2000/svg" viewBox="0 0 800 200" width="806" height="202">
	<title>F389BA9A-6115-4121-A9D7-EAFBC48A88C3</title>
	<style>
		.s0 { fill: #de2f1e } 
		.s1 { fill: #fefffe } 
		.s2 { fill: #161616 } 
	</style>
	<g id="RHS">
		<path id="Path 0" class="s0" d="m277.1 43.3c-3.3 1.7-5.1 3.6-6.8 7-2.2 4.5-2.3 5.3-2.3 40 0 35.1 0 35.6 2.3 40.1 1.6 3.1 3.7 5.3 6.4 6.8 3.9 2.1 5.5 2.1 84.4 2.6 48.2 0.4 81.8 0.2 83.9-0.4 2-0.5 5-2.4 6.8-4.2 1.8-1.8 3.8-5.1 4.4-7.3 0.7-2.7 0.9-17.1 0.7-40.8l-0.3-36.7c-4.9-5.3-8.1-7.4-10.2-8.1-3-0.9-23.4-1.3-84.3-1.3h-80.4z"/>
		<path id="Game  Pla" class="s1" aria-label="Game  Pla"  d="m84.5 89.1v22.7q-3.1 3.8-8.9 5.9-5.8 2.1-12.8 2.1-7.4 0-13-3.2-5.5-3.3-8.6-9.4-3-6.1-3.1-14.4v-3.9q0-8.5 2.9-14.7 2.9-6.3 8.3-9.5 5.4-3.4 12.7-3.4 10.1 0 15.8 4.9 5.7 4.8 6.7 14h-11.4q-0.8-4.9-3.5-7.1-2.6-2.3-7.3-2.3-6 0-9.1 4.5-3.1 4.5-3.2 13.4v3.6q0 8.9 3.4 13.5 3.4 4.6 10 4.6 6.6 0 9.4-2.8v-9.8h-10.7v-8.7zm44.7 29.9h-11.4q-0.8-1.5-1.1-3.8-4.1 4.6-10.7 4.6-6.2 0-10.3-3.6-4.1-3.6-4.1-9.1 0-6.7 5-10.3 5-3.6 14.4-3.6h5.2v-2.4q0-3-1.5-4.7-1.5-1.8-4.8-1.8-2.8 0-4.5 1.4-1.6 1.3-1.6 3.7h-11.2q0-3.6 2.2-6.8 2.3-3.1 6.4-4.8 4.2-1.8 9.3-1.8 7.8 0 12.4 3.9 4.6 3.9 4.6 11v18.3q0.1 6.1 1.7 9.1zm-20.7-7.8q2.5 0 4.6-1.1 2.1-1.1 3.1-3v-7.3h-4.2q-8.5 0-9.1 5.9v0.6q0 2.2 1.5 3.5 1.5 1.4 4.1 1.4zm27.7-34.4h10.6l0.3 4.7q4.5-5.5 12.2-5.5 8.1 0 11.2 6.4 4.4-6.4 12.7-6.4 6.8 0 10.2 4 3.4 4 3.4 12v27h-11.4v-26.9q0-3.6-1.4-5.2-1.4-1.7-4.9-1.7-5.1 0-7.1 4.8l0.1 29h-11.3v-26.9q0-3.6-1.5-5.3-1.4-1.6-4.9-1.6-4.8 0-6.9 4v29.8h-11.3zm88.7 43.1q-9.3 0-15.2-5.7-5.8-5.7-5.8-15.2v-1.1q0-6.4 2.5-11.4 2.4-5 6.9-7.7 4.6-2.7 10.3-2.7 8.7 0 13.7 5.4 5 5.5 5 15.5v4.6h-26.9q0.5 4.2 3.2 6.7 2.8 2.5 7 2.5 6.6 0 10.2-4.7l5.6 6.2q-2.6 3.6-6.9 5.6-4.3 2-9.6 2zm-1.3-34.7q-3.4 0-5.5 2.3-2 2.2-2.6 6.4h15.7v-0.9q-0.1-3.7-2.1-5.7-1.9-2.1-5.5-2.1z"/>
		<path id="Game  Pla" class="s2" aria-label="Game  Pla"  d="m311.2 99h-10.2v20h-11.8v-56.9h22.2q6.4 0 11.3 2.4 4.9 2.3 7.5 6.7 2.6 4.2 2.6 9.8 0 8.3-5.7 13.2-5.7 4.8-15.9 4.8zm-10.2-27.4v17.9h10.4q4.7 0 7.1-2.2 2.5-2.2 2.5-6.3 0-4.1-2.5-6.7-2.5-2.6-6.8-2.7zm51.1-12.6v60h-11.4v-60zm45.2 60h-11.4q-0.8-1.5-1.1-3.8-4.1 4.6-10.7 4.6-6.2 0-10.3-3.6-4.1-3.6-4.1-9.1 0-6.7 5-10.3 5-3.6 14.4-3.6h5.2v-2.4q0-3-1.5-4.7-1.5-1.8-4.7-1.8-2.9 0-4.5 1.4-1.6 1.3-1.6 3.7h-11.3q0-3.6 2.2-6.8 2.3-3.1 6.5-4.8 4.1-1.8 9.2-1.8 7.9 0 12.4 3.9 4.6 3.9 4.6 11v18.3q0.1 6.1 1.7 9.1zm-20.7-7.8q2.5 0 4.6-1.1 2.1-1.1 3.1-3v-7.3h-4.2q-8.5 0-9 5.9l-0.1 0.6q0 2.2 1.5 3.5 1.5 1.4 4.1 1.4zm35.1-34.4l7.8 26.3 7.8-26.3h12.1l-17 48.8-0.9 2.2q-3.8 8.3-12.5 8.3-2.5 0-5-0.7v-8.6h1.7q3.2 0 4.8-0.9 1.6-1 2.5-3.3l1.3-3.4-14.8-42.4z"/>
	</g>
</svg>