<svg version="1.2" xmlns="http://www.w3.org/2000/svg" viewBox="0 0 800 200" width="800" height="200">
	<title>020D3C3E-A9F9-427E-99CB-8FB0F97B0494</title>
	<style>
		.s0 { fill: #fefffe } 
		.s1 { fill: #de2e1e } 
		.s2 { fill: #161616 } 
	</style>
	<g id="RHS">
		<path id="Re" class="s0" aria-label="Re"  d="m118.6 110l-10.7-20.8h-9.3v20.8h-11.7v-56.9h21.1q10.1 0 15.5 4.5 5.5 4.5 5.5 12.7 0 5.8-2.5 9.7-2.5 3.9-7.7 6.2l12.3 23.3v0.5zm-20-47.4v17.1h9.5q4.4 0 6.8-2.2 2.5-2.3 2.5-6.2 0-4.1-2.3-6.4-2.3-2.3-7-2.3zm58 48.2q-9.3 0-15.1-5.7-5.9-5.7-5.9-15.2v-1.1q0-6.4 2.5-11.4 2.5-5 6.9-7.7 4.6-2.7 10.4-2.7 8.6 0 13.6 5.4 5 5.5 5 15.5v4.6h-26.9q0.5 4.2 3.3 6.7 2.7 2.5 6.9 2.5 6.6 0 10.2-4.7l5.6 6.2q-2.5 3.6-6.9 5.6-4.3 2-9.6 2zm-1.3-34.7q-3.3 0-5.5 2.3-2 2.2-2.6 6.4h15.7v-0.9q-0.1-3.7-2-5.7-2-2.1-5.6-2.1zm23.3 12.5q0-9.9 4.4-15.8 4.5-5.8 12.2-5.8 6.2 0 10.2 4.6v-21.6h11.3v60h-10.2l-0.5-4.5q-4.2 5.3-10.9 5.3-7.4 0-12-5.9-4.5-5.9-4.5-16.3zm11.3 0.8q0 5.9 2.1 9.1 2.1 3.1 6 3.1 5.2 0 7.4-4.4v-16.7q-2.1-4.4-7.3-4.4-8.2 0-8.2 13.3z"/>
		<path id="Path 0" class="s1" d="m295.2 33.9l-47.2 0.5c-5.9 3.8-7.5 5.8-9 9l-2 4.5c0.4 71.6 0.5 72.5 2.3 76.7 1.4 3.4 2.6 4.7 5.7 6.3l3.8 2c126.1 0.2 154.2 0 156.3-0.6 1.8-0.5 4.4-1.8 5.9-2.9 1.6-1.2 3.3-3.6 4.3-6.4 1.7-4.4 1.8-5.7 1.7-41.2-0.2-35.8-0.2-36.7-2-40.4-1.3-2.9-2.8-4.5-5.8-6.1l-4.1-2.3c-48.6 0.3-83.9 0.6-109.9 0.9z"/>
		<path id="Fla" class="s2" aria-label="Fla"  d="m289.4 77.3v9.5h-22.5v23.2h-11.7v-56.8h37v9.5h-25.3v14.6zm20.8-27.3v60h-11.4v-60zm45.2 60h-11.4q-0.8-1.5-1.1-3.8-4.1 4.6-10.7 4.6-6.2 0-10.3-3.6-4.1-3.6-4.1-9.1 0-6.7 5-10.3 5-3.6 14.4-3.6h5.2v-2.4q0-2.9-1.5-4.7-1.5-1.8-4.7-1.8-2.9 0-4.5 1.4-1.6 1.4-1.6 3.8h-11.3q0-3.7 2.2-6.8 2.3-3.2 6.4-4.9 4.2-1.8 9.3-1.8 7.8 0 12.4 3.9 4.6 3.9 4.6 11v18.3q0.1 6.1 1.7 9.1zm-20.7-7.8q2.5 0 4.6-1.1 2.1-1.1 3.1-3v-7.3h-4.2q-8.5 0-9 5.9l-0.1 0.7q0 2.1 1.5 3.4 1.5 1.4 4.1 1.4zm26-13.1v-0.5q0-9.7 4.6-15.6 4.7-6 12.5-6 7 0 10.8 4.8l0.5-4h10.2v40.8q0 5.6-2.5 9.7-2.5 4.1-7.1 6.2-4.5 2.2-10.7 2.2-4.6 0-9-1.9-4.4-1.8-6.7-4.8l5-6.8q4.2 4.7 10.2 4.7 4.5 0 7-2.4 2.5-2.4 2.5-6.8v-2.3q-3.9 4.4-10.2 4.4-7.7 0-12.4-5.9-4.7-6-4.7-15.8zm11.3 0.3q0 5.8 2.3 9 2.3 3.3 6.3 3.3 5.2 0 7.4-3.9v-17.7q-2.2-3.9-7.3-3.9-4 0-6.4 3.3-2.3 3.3-2.3 9.9z"/>
	</g>
</svg>